# xmcd CD database file generated by Grip 3.2.0
# 
# Track frame offsets:
#       150
#       16136
#       28395
#       39621
#       49745
#       57133
#       68617
#       77348
#       87671
#       102386
#       112614
#       123640
#       133947
#       148961
#       163907
# 
# Disc length: 2343 seconds
# 
# Revision: 23
# Processed by: cddbd v1.5.2PL0 Copyright (c) Steve Scherf et al.
# Submitted via: Grip 3.2.0
# 
DISCID=d109250f
DTITLE=Johnny Cash - Unearthed - My Mother's Hymn Book [CD4]
DYEAR=1900
DGENRE=
TTITLE0=Where We'll Never Grow Old
TTITLE1=I Shall Not Be Moved
TTITLE2=I Am A Pilgrim
TTITLE3=Do Lord
TTITLE4=When The Roll Is Called Up Yonder
TTITLE5=If We Never Meet Again This Side Of Heaven
TTITLE6=I'll Fly Away
TTITLE7=Where The Soul Of Man Never Dies
TTITLE8=Let The Lower Lights Be Burning
TTITLE9=When He Reached Down
TTITLE10=The Sweet By And By
TTITLE11=I'm Bound For The Promised Land
TTITLE12=In The Garden
TTITLE13=Softly And Tenderly
TTITLE14=Just As I Am
EXTD=
EXTT0=
EXTT1=
EXTT2=
EXTT3=
EXTT4=
EXTT5=
EXTT6=
EXTT7=
EXTT8=
EXTT9=
EXTT10=
EXTT11=
EXTT12=
EXTT13=
EXTT14=
PLAYORDER=
